<?xml version="1.0" encoding="UTF-8" standalone="no"?>
<!-- Created with Inkscape (http://www.inkscape.org/) -->

<svg
   version="1.1"
   id="svg9"
   width="1632.96"
   height="51.52"
   viewBox="0 0 1632.96 51.52"
   sodipodi:docname="navbar2.svg"
   inkscape:version="1.1.2 (b8e25be833, 2022-02-05)"
   xmlns:inkscape="http://www.inkscape.org/namespaces/inkscape"
   xmlns:sodipodi="http://sodipodi.sourceforge.net/DTD/sodipodi-0.dtd"
   xmlns="http://www.w3.org/2000/svg"
   xmlns:svg="http://www.w3.org/2000/svg">
  <defs
     id="defs13" />
  <sodipodi:namedview
     id="namedview11"
     pagecolor="#ffffff"
     bordercolor="#666666"
     borderopacity="1.0"
     inkscape:pageshadow="2"
     inkscape:pageopacity="0.0"
     inkscape:pagecheckerboard="0"
     showgrid="false"
     inkscape:zoom="0.98808301"
     inkscape:cx="444.29465"
     inkscape:cy="-57.687461"
     inkscape:window-width="3440"
     inkscape:window-height="1377"
     inkscape:window-x="-8"
     inkscape:window-y="-8"
     inkscape:window-maximized="1"
     inkscape:current-layer="g15" />
  <g
     inkscape:groupmode="layer"
     inkscape:label="Image"
     id="g15">
    <path
       style="fill:none;stroke:#000000;stroke-width:1px;stroke-linecap:butt;stroke-linejoin:miter;stroke-opacity:1"
       d="M 10.462693,33.155766 C 8.7446336,24.264879 13.871598,19.36865 20.614424,14.567188 c 1.065567,-0.758774 1.964054,-2.025975 3.263056,-2.180142 2.146281,-0.254722 -1.18479,4.281352 -2.537933,5.966704 -2.796227,3.482729 -5.877966,6.737965 -9.064045,9.86801 C 5.9277888,34.457837 -6.381924,42.441778 -0.05159953,45.089173 16.309879,51.931681 59.958992,17.369617 54.332672,0.45363843 53.616102,-1.7007869 50.02896,-1.961728 47.806559,-1.4970148 37.659799,0.6247155 11.548736,16.23866 5.3868276,24.549943 -2.6879905,35.441389 7.5291494,49.158847 19.8893,49.219968 30.203026,49.27097 36.871277,40.816896 40.555323,32.4673 42.363452,28.369321 43.646732,23.716524 43.093256,19.271705 41.586525,7.1715516 27.795256,2.8667304 18.439053,8.944717 c -3.09775,2.012364 2.315501,4.031336 3.263056,4.245539 1.586809,0.358712 -10.314489,1.65082 -9.064045,-3.098096 0.905928,-3.4405192 7.007784,-2.4378054 10.514292,-1.8359088 10.582979,1.8165818 42.39494,10.2953888 50.758654,17.3263898 1.156707,0.972393 1.395389,3.120678 0.725123,4.475028 -2.987557,6.036706 -20.771534,12.392523 -26.467012,9.0648 -1.187362,-0.693745 1.924623,-2.208607 3.263056,-2.524374 5.456774,-1.287379 11.093671,-1.67941 16.677844,-2.180142 18.397589,-1.64971 58.037929,0.606166 73.600049,-8.950056 3.1436,-1.930389 6.61195,-6.141172 5.43842,-9.638522 -7.42636,-22.1321036 -44.75955,-30.426801 -63.448312,-32.013661 -5.139707,-0.436412 -11.673924,-0.984915 -15.227596,2.753863 -4.798261,5.0481988 17.217062,35.163965 18.128091,43.717581 3.71053,34.838048 -51.080243,11.075261 -63.085755,6.999403 -4.321191,-1.46704 -9.538056,-1.219523 -13.052225,-4.130795 -1.5721085,-1.302395 -1.1081048,-5.183099 0.725124,-6.081449 3.15188,-1.544537 7.022286,0.21898 10.514292,0.573722 18.106194,1.839351 36.47377,6.563372 54.746833,5.737215 17.998418,-0.813739 0.630258,-5.13788 -7.251236,-1.950653 -3.751134,1.516935 -7.331174,3.754039 -10.151731,6.65517 -1.314714,1.352271 -5.486428,9.251988 -0.725123,11.244942 14.005684,5.862402 59.004308,-26.243399 69.974428,-35.914968 4.76578,-4.2016439 -8.78084,-1.194165 -9.06404,-1.147443 -8.25477,1.361828 -16.4727,2.955603 -24.654207,4.704516 -15.036582,3.214283 -31.496119,10.488828 -47.133036,9.294289 -3.448384,-0.26343 5.802633,-3.898124 9.064046,-5.048749 C 67.665148,17.286135 83.322011,9.8025007 94.939594,8.6004841 108.1918,7.2293411 128.42175,29.624905 134.45883,39.92568 c 1.17065,1.997417 2.23335,4.093957 2.9005,6.310936 0.3379,1.122884 -0.72513,4.614954 -0.72513,3.44233 0,-16.631695 31.71525,-22.898379 41.33205,-33.390593 1.74998,-1.909282 3.81429,-5.090042 2.53793,-7.343636 -6.9917,-12.3448108 -63.30801,-2.4662409 -73.96261,1.60642 -2.92385,1.117627 -7.169522,2.837596 -7.251234,5.966704 -0.09132,3.497036 3.951764,6.016783 6.888674,7.917357 11.61838,7.518662 56.6646,22.104381 68.88674,11.359687 1.42436,-1.252175 -0.34018,-4.197956 -1.8128,-5.392983 -6.09572,-4.946623 -30.48994,-14.691932 -38.43156,-13.884061 -1.11003,0.11292 -0.41988,2.532165 0.36257,3.327585 3.40891,3.465426 7.54089,6.163706 11.60197,8.835312 6.71042,4.414484 13.57126,8.626535 20.66603,12.392385 20.25908,10.753374 45.63665,23.527827 69.61186,19.621276 15.24585,-2.484178 18.71472,-9.790619 32.63057,-15.260993 14.21096,-5.586388 18.19169,-4.696845 31.90544,-5.048749"
       id="path350" />
    <path
       style="fill:none;stroke:#000000;stroke-width:1px;stroke-linecap:butt;stroke-linejoin:miter;stroke-opacity:1"
       d="m 1607.91,15.714631 c 4.1073,-0.233934 30.8611,2.371203 25.7419,-6.6551696 -0.738,-1.3012526 -14.26,-12.7328467 -15.9527,-6.8846584 -1.3203,4.5616818 0.4834,9.485529 0.7251,14.228294 -0.846,7.45838 -0.3708,15.188576 -2.5379,22.37514 -2.278,7.554207 -12.3086,7.587009 -13.4148,-0.114745 -2.4058,-16.750706 29.9829,-15.395144 27.5547,-30.6367294 -2.1612,-13.5656343 -33.2371,-13.3462192 -38.7941,-3.2128406 -6.3057,11.498675 28.1636,33.410588 27.5547,38.324598 -0.2509,2.024643 -20.418,1.670439 -24.2917,1.950653 -1.1172,0.08082 -3.8867,-0.127273 -3.263,0.80321 4.1858,6.245189 48.1631,9.030649 48.9458,4.819261 0.2695,-1.449922 -2.8762,-0.776157 -4.3507,-0.80321 -6.8885,-0.126381 -13.7829,0.04633 -20.666,0.344233 -11.8388,0.512375 -56.3065,8.749103 -63.8109,-4.130795 -8.5364,-14.650964 31.8369,-31.247064 40.2443,-34.767525 2.8772,-1.204754 5.8837,-2.1046455 8.7015,-3.4423287 0.38,-0.1803829 1.1453,-1.0137013 0.7251,-1.0326988 -8.0124,-0.362256 -15.9527,1.6829165 -23.929,2.5243748 -4.8308,0.5096206 -30.7343,2.6440467 -36.2562,4.1307947 -2.7046,0.728196 -6.6632,1.507074 -7.2512,4.24554 -1.9897,9.265588 42.2163,32.435012 46.0453,25.702724 1.6262,-2.859253 -12.8657,-16.425247 -12.6897,-22.719372 0.2397,-8.569554 11.2395,-14.2781284 11.2395,-14.9167602 0,-0.4968471 -0.9811,0.1808811 -1.4503,0.3442329 -1.9509,0.6791583 -4.0087,1.153019 -5.801,2.1801418 -9.0971,5.2134455 -14.7663,13.5374685 -14.1399,24.4405375 0.1736,3.022472 1.4781,5.884692 2.5379,8.720567 0.2837,0.758958 0.6461,1.85168 1.4503,1.950653 10.5488,1.298304 28.8501,-27.781425 21.7537,-37.4066436 -3.6965,-5.0137342 -16.4559,-6.43458144 -19.9409,-6.65516973 -22.3746,-1.41623327 -44.7756,0.8648903 -65.2611,10.32698753 -5.6577,2.6132298 -11.5934,6.1337488 -15.5902,11.1301978 -1.2718,1.589933 -1.2275,5.117479 -3.263,5.163494 -5.1415,0.116227 -9.887,-2.839781 -14.8651,-4.130795 -11.5345,-2.991347 -18.6761,-4.418251 -30.4552,-6.081449 -2.765,-0.390428 -10.7404,0.621858 -8.3389,-0.80321 3.2326,-1.91826 7.509,-0.455972 11.2394,-0.917954 7.393,-0.915555 14.8027,-1.796434 22.1163,-3.212841 22.7633,-4.408529 30.5104,-7.3585072 52.5715,-14.4577823 5.6937,-1.8322664 11.3296,-3.8438068 17.0404,-5.622471 1.9062,-0.5937174 4.353,-2.8663897 5.801,-1.4916757 1.2278,1.1657321 -2.3294,2.4680263 -3.6257,3.5570733 -5.3554,4.4991961 -11.204,8.4207432 -16.3152,13.1955951 -8.0851,7.5529936 -16.3203,16.0854756 -20.3035,26.7354236 -1.9588,5.237244 -2.6213,10.871779 -3.9882,16.293691 -0.446,1.769257 -0.3819,3.799062 -1.4502,5.278238 -0.7839,1.085389 -2.09,-2.425837 -3.9882,-8.26159 -0.8283,-2.54663 -7.0558,-15.450031 -1.8128,-17.785367 9.6102,-4.280572 23.2725,-0.147676 33.3557,-0.917955 3.0829,-0.23551 11.6868,-2.408014 8.7014,-3.21284 -15.2301,-4.105986 -62.4196,4.230834 -75.4128,13.080851 -11.0483,7.525278 1.1116,14.9185 8.3389,17.096901 15.1542,4.567652 31.6673,3.851069 47.133,7.114147 0.2365,0.0499 -0.4851,0.02849 -0.7251,0 -2.6623,-0.315963 -5.3362,-0.56671 -7.9763,-1.032699 -3.6491,-0.644053 -7.2773,-1.415502 -10.8769,-2.294886 -18.6955,-4.567338 -39.8541,-11.227865 -55.8345,-22.145651 -27.5478,-18.82061 37.9266,-35.10412995 44.5951,-29.2597978 0.9499,0.8325253 -0.7496,2.6457243 -1.8128,3.3275848 -3.6958,2.370082 -7.7934,4.137354 -11.9646,5.507727 -21.8063,7.164236 -46.5406,8.643437 -67.4365,18.473833 -3.2921,1.548779 -12.689,6.601542 -8.7014,12.851362 5.4154,8.487869 34.7283,15.973927 41.332,6.081448 10.8957,-16.32188 -5.6004,-24.07339 -15.2276,-33.620081 -1.7393,-1.724739 21.5201,-4.169508 13.4148,-8.950056 -4.0125,-2.3666043 -15.6197,-2.3644829 -18.8532,-2.4096304 -5.053,-0.070552 -26.8171,-2.4045954 -30.0926,4.4750284 -2.4343,5.11268 8.7921,9.045186 9.7891,9.294288 12.6936,3.171555 28.023,-0.196472 39.8818,-4.934005 3.9881,-1.593226 11.9884,-4.687554 9.7892,-8.3763342 -1.7975,-3.0150549 -9.9466,-4.562595 -11.9645,-4.7045165 -1.4418,-0.1013971 -20.5291,0.6775661 -24.2917,2.4096304 -14.098,6.4898223 -25.0271,18.2350083 -39.8818,23.6373273 -8.4757,3.082424 -17.2147,5.593376 -26.1044,7.114147 -28.157,4.816845 -57.2051,0.590641 -85.2021,-2.868608 -7.9872,-0.986883 -15.9436,-2.211484 -23.929,-3.212841 -4.826,-0.605164 -9.6597,-1.155639 -14.5025,-1.60642 -1.3242,-0.123262 -5.2742,-0.4539 -3.9882,-0.114744 4.2496,1.120779 19.1676,2.298595 21.7537,2.524375 2.5355,0.221361 5.0766,0.372977 7.6138,0.573721 0.8468,0.067 3.3847,0.296487 2.5379,0.229489 -13.8774,-1.097992 -27.1467,-2.212151 -40.9694,-4.819261 -4.4122,-0.832171 -8.8386,-1.776953 -13.0523,-3.327585 -1.0947,-0.402877 -3.4713,-1.709965 -2.5379,-2.40963 8.8139,-6.606599 52.6564,-5.294417 61.2729,-5.392983 20.0295,-0.229119 37.4682,0.243743 57.2848,-2.40963 54.5389,-7.3025497 5.3702,-1.467895 25.3793,-5.8519598 0.221,-0.048418 -0.2636,0.3702605 -0.3625,0.5737215 -0.8686,1.7868373 -1.9749,3.4876643 -2.538,5.3929823 -2.3547,7.968125 -3.179,16.330123 -5.4384,24.325793 -2.9848,10.562969 -4.9354,18.758202 -13.4148,26.505935 -14.5963,13.336838 -47.4694,18.679749 -59.8227,-1.147444 -9.4908,-15.232997 48.166,-46.085608 40.2444,-68.2728614 -3.849,-10.7806076 -29.6388,-9.5309066 -33.3557,-9.5237776 -19.4055,0.03722 -106.4696,3.751249 -103.6927,36.488689 1.1059,13.037245 18.8646,29.244724 26.8296,36.48869 5.3672,4.881287 11.374,9.009338 17.0404,13.539828 1.2224,0.977355 5.157,2.66025 3.6256,2.983352 -1.7804,0.375647 -3.0731,-1.96596 -4.7133,-2.753864 -5.1347,-2.466588 -10.2565,-4.998829 -15.5901,-6.999402 -16.6859,-6.258684 -32.6497,-10.352375 -50.0336,-14.343039 -13.232,-3.037549 -26.5478,-5.708767 -39.8818,-8.26159 -4.8193,-0.922668 -9.6856,-1.588918 -14.5024,-2.524374 -0.5104,-0.09911 -1.9012,-0.315049 -1.4503,-0.573722 7.1428,-4.097258 15.4804,-5.718263 22.8414,-9.409033 6.1502,-3.083659 23.6432,-13.835635 30.4552,-17.441134 2.3366,-1.236735 4.8456,-2.116497 7.2512,-3.212841 0.6164,-0.2808858 2.4369,-1.1812843 1.8129,-0.9179543 -0.9861,0.4160891 -1.8878,1.0307833 -2.9005,1.3769313 -16.8075,5.744785 -34.249,5.43123 -51.4838,2.294886 -5.1966,-0.945654 -22.5368,-5.1604349 -29.005,-4.8192604 -7.5993,0.4008424 8.788,17.9855394 8.339,24.0963044 -1.054,14.342709 -29.2535,8.837081 -35.5311,8.032101 -16.0445,-2.057378 -31.82669,-5.875791 -47.85816,-8.032101 -6.02334,-0.810168 -12.07827,-1.370453 -18.12809,-1.950653 -1.92822,-0.184923 -7.73805,-0.344233 -5.80099,-0.344233 44.5269,0 88.96534,-5.551296 131.60994,-19.047555 5.3588,-1.6959793 10.8254,-3.444011 15.5902,-6.4256812 1.0103,-0.6322312 1.4258,-3.0186562 0.3625,-3.55707346 -2.82,-1.42799861 -6.2701,-1.20216545 -9.4266,-1.03269875 -10.4334,0.56016023 -20.8778,1.47265011 -31.1803,3.21284061 -41.1057,6.9431268 -80.08548,23.1769248 -120.73309,32.2431498 -7.60064,1.69528 -15.03014,3.406025 -22.84139,2.868608 -2.07041,-0.142445 -13.91714,-2.579818 -15.95272,-2.868608 -12.87081,-1.825997 -26.82663,-2.579113 -39.15668,-7.114147 -2.04303,-0.751435 -24.61041,-11.606438 -15.22759,-18.818066 3.20858,-2.4661142 7.1954,-4.4392008 11.23941,-4.5897723 19.98028,-0.7439292 28.10869,22.7687953 11.60198,34.3085473 -12.04471,8.42039 -49.01381,11.725439 -63.08575,6.884658 -0.55443,-0.190723 -0.13529,-1.411476 0.36256,-1.721164 3.18069,-1.97855 6.72902,-3.297259 10.15173,-4.819261 5.94846,-2.645146 57.97776,-24.203062 56.55964,-28.915565 -2.40982,-8.0079892 -37.8429,-1.0538082 -42.41973,1.032699 -40.51111,18.468401 25.07223,60.225328 -21.39115,57.372153 -10.98558,-0.674592 -21.84321,-2.864435 -32.63056,-5.04875 -14.73284,-2.98323 -29.40709,-6.345289 -43.86998,-10.441732 -22.26913,-6.307466 -54.94496,-17.835124 -76.50054,-28.112355 -4.37521,-2.086003 -32.63056,-14.680742 -32.63056,-26.16170124 0,-2.64374326 3.20073,4.58588274 3.26305,7.22889124 0.19206,8.145004 -3.23551,17.676026 -8.70148,23.522583 -14.10599,15.088177 -36.74343,26.617746 -58.00989,23.407838 -2.64744,-0.399597 -6.71981,-1.458703 -6.88867,-4.130795 -0.20156,-3.189439 3.52382,-5.542248 6.16355,-7.343636 19.21976,-13.115843 44.96896,-17.610358 67.43649,-20.309742 6.48406,-0.779033 21.63626,-2.178883 26.10445,5.04875 1.24788,2.018528 1.27825,4.572541 1.81281,6.884658 0.19149,0.828245 -0.25392,3.109696 0.36256,2.524375 5.972,-5.670094 -26.1083,-35.93868778 -29.3675,-38.7835754 -5.68656,-4.963667 -11.03501,-8.4389776 -11.96454,-7.4583796 -1.39095,1.4673606 3.76498,6.4954992 10.51429,9.63852137 18.41191,8.57407213 38.22755,8.15846593 58.00989,8.95005583 5.58271,0.2233919 18.42915,0.8244077 25.01676,2.0653978 1.27344,0.239892 7.27773,3.387472 9.06405,3.557073 8.55975,0.812703 11.23942,-12.1677083 11.23942,-18.1296001 0,-12.4922599 -46.17319,-6.3433509 -54.02171,-0.9179545 -19.53905,13.5066271 -19.85073,53.4012016 -44.23255,54.5035456 -8.28474,0.374567 -19.81548,-4.797718 -26.10445,-9.753266 -4.96041,-3.908685 -7.7159,-9.928817 -3.62561,-9.982755 2.47269,-0.03261 5.159,0.986512 6.88867,2.753863 17.05744,17.429031 -6.48968,38.134034 -23.56652,26.735424 -25.35112,-16.921608 9.02949,-33.640263 22.47884,-39.357297 6.05277,-2.572905 12.27645,-4.730675 18.49065,-6.884659 3.94168,-1.366279 7.97752,-2.444101 11.96454,-3.6718173 0.48459,-0.1492202 1.92972,-0.6239164 1.45024,-0.4589773 -19.4975,6.7071856 -39.50371,11.0546146 -59.82269,14.5725266 -12.18925,2.110376 -46.23043,6.405824 -59.46014,9.523778 -8.12104,1.91395 -16.07786,4.520032 -23.92908,7.343635 -5.36304,1.928758 -13.83759,8.654991 -14.50247,8.26159 -6.54047,-3.86989 -11.01122,-10.519937 -17.04041,-15.146248 -8.99869,-6.904872 -17.73229,-14.293296 -27.55469,-19.965509 -17.72237,-10.2342587 -83.47077,-34.653568 -88.82765,2.983352 -1.01903,7.159629 3.83116,19.925519 7.6138,25.473235 14.68764,21.541247 43.16981,10.676065 63.44832,5.85196 9.59799,-2.28329 19.18443,-4.650897 28.64238,-7.45838 8.07761,-2.397743 15.98936,-5.325896 23.92908,-8.146846 4.87263,-1.731224 9.63445,-3.763602 14.50247,-5.507726 1.54086,-0.552062 6.07426,-2.286226 4.7133,-1.376932 -15.15617,10.126275 -71.122,17.449793 -86.65227,20.768719 -10.32702,2.206958 -20.55722,4.845732 -30.81775,7.343636 -29.14631,7.095603 -74.86164,24.163273 -96.804,-7.45838 -3.50277,-5.04792 -6.49215,-10.965536 -6.88868,-17.096901 -0.48552,-7.50731 2.04383,-14.985094 4.35074,-22.1456514 0.8933,-2.7727578 2.68305,-5.4526439 5.07587,-7.11414693 5.90018,-4.09691767 12.20068,-8.20881237 19.21577,-9.75326567 23.08704,-5.082875 58.15821,9.86692559 77.58823,20.3097418 20.08795,10.7964232 38.30751,24.8463552 58.37245,35.6854792 5.3444,2.887056 10.76181,5.96589 16.67785,7.343635 34.16713,7.956945 38.84665,-11.167268 55.10939,-34.767524 1.80431,-2.618393 3.48509,-5.394108 5.80099,-7.573124 12.53435,-11.7934745 18.71294,0.64031 5.07587,7.114147 -31.15103,14.78811 -70.76211,11.127773 -103.69268,8.950055 -19.49865,-1.289457 -71.69091,-7.050126 -93.17839,-9.179544 -2.48531,-0.246296 -49.84408,-6.933794 -55.47195,-2.065398 -1.68541,1.457962 -4.22873,13.394498 -5.43843,15.031505 -5.17959,7.009195 -13.37582,9.488856 -21.75371,9.982754 -26.69818,1.573926 -54.22147,-6.125335 -80.48872,-9.523777 -27.47584,-3.554809 -54.623616,-4.839831 -82.301532,-3.901307 -8.465366,0.287051 -16.913988,0.974348 -25.379327,1.262188 -6.160465,0.209469 -12.40605,-0.756829 -18.490652,0.229488 -3.994673,0.647539 -7.492944,3.059849 -11.239416,4.589773"
       id="path352" />
    <path
       style="fill:none;stroke:#000000;stroke-width:1px;stroke-linecap:butt;stroke-linejoin:miter;stroke-opacity:1"
       d="M 26.777974,5.9613651 C 32.391146,5.9106089 40.338541,5.5894275 46.356312,6.1908537 48.314157,6.3865241 42.630855,7.5176607 40.917885,8.4857398 28.191236,15.678161 16.286107,28.313582 11.187817,42.220566 c -0.990871,2.70287 -2.2630094,6.172257 -0.725124,8.605823 1.038033,1.642593 4.13826,0.431742 5.800989,-0.573722 C 29.754174,42.094875 75.015188,-4.4964842 42.368132,-13.8894 29.846115,-17.492121 3.0515942,-4.5244869 17.351367,12.387046 31.554442,29.18422 60.102726,38.431463 81.524808,34.647442 94.952436,32.27557 89.033796,24.438968 82.249931,20.648636 72.958087,15.457026 51.495637,9.5950277 41.280447,5.0434107 38.163466,3.6545671 32.95717,3.0418015 32.578963,-0.34957171 31.997466,-5.563849 107.78215,-21.947077 114.88049,-22.724711 c 3.56519,-0.390572 19.57633,-3.025406 15.95272,8.26159 -5.49293,17.1096494 -45.418865,36.956548 -32.630559,57.945874 2.976669,4.885573 9.586949,6.962138 15.227599,7.917357 16.28359,2.757556 52.45313,-5.45131 64.89856,-8.835311 25.77546,-7.008531 43.35257,-14.655017 66.71137,-26.046958 5.43058,-2.648458 11.16507,-4.920188 15.95272,-8.6058227 0.80997,-0.6235293 -1.51869,-1.6437479 -2.53793,-1.7211646 -5.18306,-0.3936826 -10.42923,-0.2753108 -15.59016,0.3442329 -6.37014,0.7647035 -33.6017,3.7325204 -40.96948,11.7039194 -15.15003,16.391227 49.8594,42.798991 65.98625,22.489884 2.99784,-3.77529 2.3084,-10.04716 0.36256,-14.457783 -9.3523,-21.1988127 -39.83415,-30.6863776 -60.54782,-33.0463598 -4.35092,-0.4957151 -9.73461,-1.3665699 -13.05223,1.4916759 -2.46306,2.1220093 -0.87191,6.6212796 0,9.753266 3.96985,14.2599889 23.12063,39.5863199 12.3271,54.3888009 -5.83826,8.006725 -18.07804,-1.547039 -21.39114,-4.475028 -9.4724,-8.371339 -19.00849,-31.12006 -3.98818,-40.275251 10.00242,-6.0966875 36.9754,-2.169319 46.40791,-0.344233 48.36995,9.359054 51.75067,12.793063 97.89169,24.440537 32.92931,8.312415 70.33456,20.687381 104.05524,8.032101 4.35075,-1.632826 15.48408,-8.768169 21.7537,-12.736618"
       id="path354" />
    <path
       style="fill:none;stroke:#000000;stroke-width:1px;stroke-linecap:butt;stroke-linejoin:miter;stroke-opacity:1"
       d="m 1607.91,15.714631 c -16.6742,17.493522 25.0155,-13.6549951 20.3035,-15.14624827 -8.513,-2.69421133 -41.0496,14.50337227 -26.467,24.21104827 8.6433,5.753893 19.1055,8.226694 29.0049,11.359686 4.5524,1.440762 9.4721,1.289074 14.1399,2.294887 1.0463,0.225439 3.9525,1.180036 2.9005,1.376931 -12.1063,2.265902 -24.3283,4.131373 -36.6187,4.934005 -10.6137,0.693133 -21.2875,0.164323 -31.9055,-0.458977 -24.1432,-1.417261 -9.8672,-4.874918 1.0877,-8.491078 9.2435,-3.051229 65.7853,-19.476286 43.1449,-39.242553 -16.7591,-14.631566 -63.5471,-15.223863 -79.4011,1.2621874 -3.7619,3.9119387 -5.4548,9.59625 -6.5261,14.9167596 -1.6868,8.377365 9.0641,15.598303 9.0641,20.194998 0,0.787039 -1.5169,-0.486812 -2.1754,-0.917955 -2.8594,-1.872341 -5.5547,-3.984142 -8.3389,-5.966703 -0.5157,-0.3672 -30.2504,-19.9058838 -29.005,-25.35849196 0.5446,-2.38414344 4.4672,-2.18224954 6.8887,-2.52437474 3.9421,-0.5569605 40.9081,-0.2971133 37.7064,8.1468457 -2.0792,5.483792 -22.313,19.2224 -22.8414,19.621276 -11.0052,8.308293 -22.8062,15.6844 -31.1803,26.964912 -1.3046,1.757405 -3.8499,5.510598 -1.8128,6.310937 3.8838,1.525852 8.3671,-0.864806 12.3271,-2.180142 8.308,-2.759498 16.4479,-6.095205 24.2917,-9.982754 13.6579,-6.769164 36.806,-19.039586 49.6709,-30.751474 3.6073,-3.283957 20.375,-15.70185221 11.602,-25.1290033 -11.1672,-11.9998887 -50.1087,-8.2411627 -62.3606,-2.4096307 -8.0071,3.811108 -15.3023,9.6909607 -20.666,16.7526689 -8.8875,11.7009841 -4.3909,42.4112601 -16.6779,49.3400511 -15.6897,8.847664 -66.8589,-31.130213 -55.1094,-43.143859 9.2994,-9.5083928 46.7687,23.72477 41.6946,35.111758 -0.6904,1.549341 -2.7971,1.958329 -4.3507,2.639119 -2.0906,0.916122 3.9785,-2.323269 6.1635,-2.983352 47.2667,-14.279083 -20.2011,7.48885 43.5075,-12.507129 5.9719,-1.874396 11.9385,-3.795775 17.7655,-6.081449 2.7712,-1.087031 6.2559,-1.586791 7.9763,-4.01605 0.8085,-1.141606 -1.9107,-2.281164 -3.263,-2.639119 -5.4411,-1.44022 -11.0699,-2.159047 -16.6779,-2.639119 -24.383,-2.087334 -65.2983,-3.554353 -88.1025,5.507726 -7.5066,2.983043 -14.293,7.994436 -19.9409,13.769317 -9.9772,10.201547 1.893,37.055216 -19.2158,37.636132 -11.2747,0.310285 -27.1873,-7.10178 -36.6187,-10.556476 -15.4702,-5.666716 -27.7796,-10.58307 -44.5951,-13.195595 -14.0889,-2.188903 -21.5953,5.472318 -34.0808,9.523777 -14.1618,4.59542 -28.3579,5.801707 -43.1449,6.425682"
       id="path356" />
    <path
       style="fill:none;stroke:#000000;stroke-width:1px;stroke-linecap:butt;stroke-linejoin:miter;stroke-opacity:1"
       d="m 1347.5906,32.008322 c 5.5593,-3.0216 11.1626,-5.963599 16.6779,-9.0648 3.3345,-1.874957 29.0812,-15.6209287 33.3557,-21.6866734 4.1082,-5.8299042 -7.3298,-10.1612945 -15.5902,-10.3269875 -14.2631,-0.2860994 -118.7909,9.53254274 -104.0552,40.0457629 7.5893,15.715224 71.3935,28.198058 75.4128,9.753266 1.6773,-7.697172 -13.4345,-8.690708 -21.0286,-10.785965 -30.5486,-8.42861 -68.3623,-10.508811 -99.7044,-12.851362 -33.6744,-2.516862 -67.6937,-5.144065 -101.5174,-4.475028 -9.9083,0.195989 19.8331,0.743239 29.7301,0.229488 27.432,-1.423987 49.9462,-4.0394024 76.8631,-9.8680098 7.8746,-1.705173 15.6807,-3.88590609 23.204,-6.7699141 1.2465,-0.4778459 3.8572,-2.8939725 2.5379,-3.0980962 -13.9647,-2.1606862 -66.5978,7.8994637 -66.7114,7.9173571 -12.4582,1.9630142 -24.8832,4.1340015 -37.3438,6.0814482 -16.9073,2.6423948 -33.8642,4.9651368 -50.7587,7.6878688 -15.8584,2.555758 -31.7352,5.043272 -47.4956,8.146845 -6.0105,1.183607 -12.3708,1.802049 -17.7655,4.704517 -1.4859,0.799416 -1.6827,3.997955 -0.3626,5.048749 6.9544,5.535699 27.0608,9.190283 35.1685,4.360284 0.812,-0.48371 -0.9058,-1.914217 -1.8128,-2.180142 -7.4825,-2.19397 -15.1624,-3.693951 -22.8414,-5.048749 -20.407,-3.600409 -60.34865,-8.845671 -80.85127,-11.474431 -7.14288,-0.91583 -51.69341,-5.981727 -59.09757,-8.032101 -1.31049,-0.3629039 1.60562,-2.4534114 2.90049,-2.8686079 8.05154,-2.5816949 16.3509,-4.3706485 24.65421,-5.9667039 11.41209,-2.19362251 22.85463,-4.527587 34.44337,-5.3929824 3.93018,-0.293488 59.51047,-2.6887867 54.38427,16.9821572 -3.0842,11.835326 -26.3029,21.003514 -33.71825,23.293094 -27.68795,8.549015 -73.89983,14.360576 -102.96755,10.326988 -11.18434,-1.551997 -30.30259,-7.255161 -21.02859,-22.37514 2.57267,-4.194384 5.35003,-8.60415 9.42661,-11.359686 10.66576,-7.2094496 22.20707,-10.8134723 34.80593,-8.2615903 1.54958,0.3138636 4.29069,2.2408018 3.26306,3.4423292 -10.10673,11.8170441 -34.19783,19.7298691 -46.77047,23.1783501 -43.19741,11.848377 -85.44564,10.803076 -129.43457,4.475028 -11.22219,-1.614373 -22.37395,-3.83644 -33.35569,-6.65517 -4.42327,-1.135342 -9.95893,-1.503238 -12.68966,-5.163494 -1.43994,-1.930094 4.13337,-2.826979 6.52611,-3.098096 24.66794,-2.795084 55.72346,1.639345 75.41286,18.1296 3.63112,3.041135 8.90462,8.525995 6.52611,12.621874 -8.23039,14.173018 -61.95665,9.435707 -62.36063,9.409033 -45.86302,-3.028273 -96.46245,-15.680343 -140.67398,-23.637327 -22.29314,-4.012216 -44.6451,-7.733765 -67.07394,-10.900709 -16.86004,-2.380633 -33.7699,-4.592192 -50.75865,-5.737215 -10.26919,-0.692133 -31.68564,-3.366718 -34.80593,6.310936 -1.14191,3.54167 1.37223,7.320419 1.81281,11.015454 0.52705,4.420258 0.72512,8.873559 1.08768,13.310339"
       id="path358" />
    <path
       style="fill:none;stroke:#000000;stroke-width:1px;stroke-linecap:butt;stroke-linejoin:miter;stroke-opacity:1"
       d="m 244.67762,21.566591 c 9.96513,-6.812176 8.64971,-5.009161 16.67784,-14.1135499 1.93423,-2.1935267 3.55128,-4.6505044 5.43843,-6.88465837 1.37832,-1.63175613 3.01304,-3.03930443 4.35074,-4.70451653 3.00109,-3.7358359 -1.10203,-1.7554463 3.98818,0.2294886 5.79777,2.2608454 11.72913,4.22480542 17.76553,5.7372153 26.20242,6.5649701 39.9989,6.8357503 69.24931,8.9500559 5.06495,0.36611 10.15798,0.164284 15.22759,0.458977 0.86587,0.05033 3.39316,0.429368 2.53794,0.573722 -6.23805,1.052922 -12.58434,1.329861 -18.85322,2.180141 -33.42677,4.533846 -67.3597,9.796486 -100.06706,18.129601 -8.8547,2.255984 -24.7366,6.56981 -16.67784,11.359686 7.4729,4.441656 26.5786,4.323007 33.71825,3.786562 35.43299,-2.662294 61.72469,-10.614309 85.20202,-38.7835752 5.13162,-6.1571714 9.16354,-13.1862625 13.05223,-20.1949978 3.26096,-5.87735 5.51598,-12.259247 8.33892,-18.359089 0.68218,-1.47407 0.91788,-3.332188 2.17537,-4.360284 1.82795,-1.494488 4.48812,-3.946114 6.52611,-2.753863 9.59996,5.616094 4.34089,20.098794 0.72513,26.161702 -12.60349,21.133524 -37.32687,34.486403 -58.73502,44.291302 -6.20982,2.84409 -13.07182,4.13042 -19.21577,7.114147 -1.0763,0.522687 -2.98809,2.873743 -1.81281,3.098096 8.08288,1.542972 16.4268,1.109021 24.6542,1.262187 16.43333,0.305933 32.87226,0.148304 49.30841,0.114745 54.80618,-0.111905 69.98834,-1.504813 124.3587,2.065397 15.15138,0.994911 30.26038,2.651879 45.32022,4.589772 6.95302,0.894711 14.18737,1.22326 20.66603,3.901307 1.38666,0.573197 -1.41179,3.254832 -2.9005,3.442329 -17.70535,2.229935 -37.57303,1.017471 -55.47195,-0.344233 -4.96555,-0.377766 -19.77416,-2.328257 -14.86504,-1.491676 6.47741,1.103838 13.05223,1.529924 19.57834,2.294886 11.96454,1.912405 23.97472,3.558375 35.89362,5.737216 57.52656,10.516172 114.46057,22.200541 172.57942,29.145053"
       id="path360" />
    <path
       style="fill:none;stroke:#000000;stroke-width:1px;stroke-linecap:butt;stroke-linejoin:miter;stroke-opacity:1"
       d="M 26.777974,5.9613651 C 26.502216,5.5795477 23.916104,-0.12962971 21.339547,1.7158258 11.498052,8.7647852 3.3176303,34.474961 -15.279196,30.287158 -24.626078,28.182341 -15.627465,13.335616 -5.8525885,7.1088082 -1.2355276,4.1676408 4.6510723,2.682645 10.100131,3.2075018 13.764729,3.5604781 19.892037,5.9095481 19.164176,9.5184386 17.995702,15.311988 -5.0790503,25.232911 -8.3905211,26.730084 c -4.1743899,1.887314 -8.5780259,3.257862 -12.6896629,5.278238 -0.552298,0.271388 -1.700128,1.55167 -1.087686,1.491676 C -7.4807104,32.061263 32.863667,22.325524 43.093256,11.239603 46.087488,7.9947201 36.786061,5.2127117 26.777974,5.9613651 19.075721,6.537531 -16.106854,12.684991 -24.343241,15.026165 c -3.467218,0.985549 -20.960383,4.084664 -16.315281,14.228294 1.622038,3.542088 5.550466,5.511655 8.701483,7.802613 1.375267,0.999892 6.355766,2.390492 4.713304,1.950653 -4.77545,-1.27883 -9.261379,-3.674869 -14.139911,-4.475028 -31.118363,-5.103917 -63.242974,-5.47178 -94.628634,-7.45838"
       id="path362" />
    <path
       style="fill:none;stroke:#000000;stroke-width:1px;stroke-linecap:butt;stroke-linejoin:miter;stroke-opacity:1"
       d="m 1618.4243,16.403097 c -14.7856,25.734801 17.107,-4.65505 12.6897,-4.130795 -4.4174,0.524255 -8.4839,2.681808 -12.6897,4.130795 -5.3428,1.840728 -11.6097,2.121704 -15.9527,5.737215 -7.0083,5.834293 6.1292,15.680669 7.9764,16.637925 11.4329,5.92501 39.1055,12.2279 50.7586,2.639119 1.3714,-1.128425 2.1718,-4.248105 0.7251,-5.278239 -6.9296,-4.934454 -21.7727,0.160482 -27.1921,2.294887 -5.7209,2.253145 -11.1009,5.347632 -16.3153,8.605823 -4.2433,2.651423 -8.047,5.952082 -11.9645,9.0648 -1.766,1.40322 -2.8989,3.884488 -5.0759,4.475028 -1.4665,0.39781 1.766,-2.477784 2.5379,-3.786562 9.7618,-16.550461 7.9236,-12.604389 13.7774,-33.620082 0.5991,-2.150706 7.5874,-30.7085553 9.4266,-35.914968 0.5275,-1.493157 1.2191,-4.89259 2.5379,-4.01605 1.9605,1.302929 0.7679,27.449475 1.0877,31.439939 0.5268,6.573835 0.3838,13.388104 2.538,19.621277 4.2796,12.383462 22.8413,16.796314 22.8413,0.917954 0,-26.399915 -50.0092,-27.4660942 -67.0739,-25.8174687 -2.9604,0.2860082 -17.7436,2.0737157 -20.3035,7.8026127 -2.67,5.975563 6.456,10.558454 9.4267,11.818664 2.8451,1.20695 6.0141,1.451387 9.064,1.950653 0.483,0.07907 1.9169,-0.08181 1.4502,-0.229489 -4.8578,-1.537413 -19.6803,2.204353 -23.929,3.212841 -0.9365,0.222276 -3.4983,1.312946 -2.538,1.376931 14.012,0.933587 28.3403,-7.693905 41.3321,-11.589175 10.6918,-3.205683 21.4116,-6.355639 32.268,-8.950055 6.9272,-1.655437 13.9741,-2.806388 21.0286,-3.786562 2.8751,-0.399482 6.278,-1.9420795 8.7015,-0.344233 1.5051,0.992372 -2.7775,2.332583 -4.3508,3.21284 -5.2107,2.915379 -10.5415,5.623066 -15.9527,8.146846 -23.614,11.013439 -51.5543,25.624329 -78.6759,21.801418 -9.0198,-1.271372 -25.933,-9.294996 -24.6542,-15.71997 2.0067,-10.082011 61.0465,-14.631982 64.1734,-14.91676 5.5428,-0.504803 11.1141,-0.653988 16.6779,-0.80321 1.5724,-0.04217 4.4896,-1.327497 4.7133,0.229489 0.2964,2.063976 -2.94,3.016747 -3.9882,4.819261 -2.5972,4.466057 -6.4342,8.737737 -6.8887,13.884061 -1.5195,17.205167 7.1737,34.116194 18.4907,46.241955 4.0304,4.318522 10.1517,6.0432 15.2276,9.0648"
       id="path364" />
    <path
       style="fill:none;stroke:#000000;stroke-width:1px;stroke-linecap:butt;stroke-linejoin:miter;stroke-opacity:1"
       d="m 26.777974,5.9613651 c 3.263056,1.7211646 6.10861,4.9116389 9.789169,5.1634939 1.856653,0.127048 2.417079,-2.8303597 3.625618,-4.2455395 C 40.797031,6.3820942 42.386675,4.7041714 42.00557,5.3876436 41.274834,6.6981447 39.980295,7.6112112 39.105076,8.8299727 32.798104,17.612563 27.235662,25.144973 24.602603,36.024373 23.280247,41.48815 23.400913,53.196687 28.953345,52.318065 39.278613,50.684184 54.757467,19.378331 57.95829,12.616535 59.62775,9.0897714 61.481201,5.3869278 61.583908,1.4863372 61.62073,0.08791414 59.514114,-1.8828974 58.320852,-1.1527819 45.969415,6.4046336 39.828435,51.010774 23.152356,46.466105 8.2245642,42.39789 -40.393006,2.6500863 -25.793488,-15.381076 -13.919887,-30.04559 36.264688,-8.4109638 45.99375,-4.7098553 65.982531,2.8942332 94.069853,13.756612 112.34256,26.500596 c 4.36842,3.046676 12.10722,6.522075 10.87686,11.703919 -1.35455,5.70488 -9.95487,6.526997 -15.59016,8.146846 -7.734733,2.223325 -15.933789,2.293851 -23.929082,3.21284 -22.930133,2.635618 -60.068499,6.320373 -84.47690115,8.605823 -8.57714305,0.80311 -17.15708085,1.578331 -25.74188885,2.294886 -2.413523,0.201452 -9.471993,1.425369 -7.251236,0.458978 3.147131,-1.369515 6.763787,-1.171761 10.151731,-1.721165 11.235497,-1.821997 22.4644088,-3.687943 33.718248,-5.392982 22.827541,-3.458541 45.666771,-6.842217 68.524182,-10.097499 20.65057,-2.940991 41.310277,-5.824458 61.998067,-8.491079 15.8116,-2.038088 31.65406,-3.831913 47.4956,-5.622471 6.15467,-0.695658 12.39566,-0.733649 18.49065,-1.835909 5.25215,-0.949834 -10.62454,1.064308 -15.95272,1.376932 -16.18649,0.94972 -32.37626,1.922678 -48.58328,2.40963 -43.862125,1.317871 -87.768572,0.119811 -131.609937,1.606421"
       id="path366" />
  </g>
</svg>
