<?xml version="1.0" encoding="UTF-8" standalone="no"?>
<!-- Created with Inkscape (http://www.inkscape.org/) -->

<svg
   version="1.1"
   id="svg40"
   width="1632.96"
   height="51.52"
   viewBox="0 0 1632.96 51.52"
   sodipodi:docname="titlebar.svg"
   inkscape:version="1.1.2 (b8e25be833, 2022-02-05)"
   xmlns:inkscape="http://www.inkscape.org/namespaces/inkscape"
   xmlns:sodipodi="http://sodipodi.sourceforge.net/DTD/sodipodi-0.dtd"
   xmlns="http://www.w3.org/2000/svg"
   xmlns:svg="http://www.w3.org/2000/svg">
  <defs
     id="defs44" />
  <sodipodi:namedview
     id="namedview42"
     pagecolor="#ffffff"
     bordercolor="#666666"
     borderopacity="1.0"
     inkscape:pageshadow="2"
     inkscape:pageopacity="0.0"
     inkscape:pagecheckerboard="0"
     showgrid="false"
     inkscape:zoom="0.65402706"
     inkscape:cx="816.47998"
     inkscape:cy="25.992808"
     inkscape:window-width="3440"
     inkscape:window-height="1377"
     inkscape:window-x="-8"
     inkscape:window-y="-8"
     inkscape:window-maximized="1"
     inkscape:current-layer="g46" />
  <g
     inkscape:groupmode="layer"
     inkscape:label="Image"
     id="g46">
    <path
       style="fill:none;stroke:#000000;stroke-width:1px;stroke-linecap:butt;stroke-linejoin:miter;stroke-opacity:1"
       d="m -21.88677,39.635852 c -2.373569,-4.04488 -4.954287,-7.975132 -7.120708,-12.13464 C -42.862227,0.90021465 44.791177,-3.2951272 51.511288,3.2319314 67.497449,18.75885 20.19544,60.562009 9.8825384,68.585636 5.8334258,71.73592 1.2049902,74.117767 -2.7156358,77.426588 -3.4257632,78.025901 -0.81508225,77.30767 0.02309775,76.906532 34.895328,60.217289 68.150182,37.054884 81.08961,-1.2752207 82.683344,-5.9962939 84.049097,-11.562449 82.185103,-16.183493 78.542979,-25.212717 33.286079,3.8069225 35.078887,17.100091 36.87592,30.424593 72.101434,52.596895 83.828343,56.450996 121.98561,68.991552 51.93801,6.0312848 48.772554,-3.8755007 c -0.743529,-2.3269922 4.714341,-2.1543886 7.120708,-1.73352 8.232144,1.4397854 103.724038,26.3390157 97.498908,39.0042007 -6.50886,13.242467 -65.20599,16.878506 -76.684534,17.681904 -7.837177,0.548533 -15.747257,-0.02259 -23.553108,0.86676 -1.472957,0.167819 -5.190762,1.655596 -3.834227,2.253576 6.006881,2.647919 12.659601,3.674069 19.171135,4.507152 10.707369,1.369896 21.591405,3.298754 32.317054,2.080224 57.23316,-6.502199 71.24409,-54.3247289 64.63411,-104.531257 -0.59553,-4.523382 -6.76359,-26.782397 -14.24141,-30.163248 -5.31439,-2.402728 -2.73874,17.10397 -2.73874,24.789336 0,10.864926 0.54762,21.780606 -0.54774,32.590176 -1.2323,12.1608929 -7.23689,34.788152 -11.50268,47.151745 -1.43759,4.166569 -8.20096,12.055833 -3.83423,12.654696 5.24859,0.719803 10.5885,-0.391123 15.88465,-0.520056 11.31911,-0.275561 22.64629,-0.256232 33.9603,-0.693408 48.4778,-1.873195 99.054,-3.04285 146.79612,-13.0014 10.39758,-2.168838 44.81323,-7.395714 49.2972,-19.7621286 7.04564,-19.4312704 -41.21835,-29.8797144 -54.77467,-24.2692804 -8.46102,3.501688 2.48452,12.2397822 8.2162,15.60168035 C 342.01532,6.530974 352.39597,11.97019 363.17916,16.406683 394.63101,29.346814 431.374,38.156075 465.6078,35.475404 c 29.60389,-2.318129 36.42534,-15.297417 60.25213,-26.5228566 31.5793,-14.8778512 47.86408,-12.3732447 80.51877,-1.560168 5.40066,1.7883433 39.35426,12.6931306 42.17649,25.3093926 0.83587,3.736595 -6.11607,5.088973 -9.85944,5.893968 -10.76374,2.314694 -21.86028,3.635132 -32.8648,3.293688 C 547.88835,40.091605 492.85474,19.951439 438.22046,2.8852274 430.37665,0.4350419 422.46974,-1.816495 414.66735,-4.3955567 c -0.44211,-0.1461392 -1.55143,-0.9612995 -1.09549,-0.86676 40.60091,8.4186122 79.59601,24.1764797 119.40878,35.5371607 10.7535,3.06854 38.23272,10.651242 51.48819,13.348104 5.01095,1.019491 12.91476,4.156872 15.33691,-0.346704 2.80242,-5.210626 -11.21584,-22.218404 -12.05043,-22.189057 -1.49015,0.0524 -1.80338,2.678005 -1.64324,4.160449 2.37167,21.954766 15.90009,44.329262 8.76395,66.913872 -0.36972,1.170101 -0.68658,-2.421147 -0.54775,-3.640392 0.59735,-5.24618 1.18822,-10.554389 2.73873,-15.60168 2.30371,-7.499123 5.30797,-14.799621 8.76395,-21.842352 18.73997,-38.188967 35.44651,-54.7382185 79.42327,-45.4182246 11.53337,2.444266 22.68763,6.4285496 33.9603,9.8810636 11.36974,3.482245 22.69675,7.109407 33.9603,10.921177 4.89005,1.654876 51.86519,17.748243 48.20171,23.229168 -2.29793,3.437916 -7.91848,2.783523 -12.05043,2.946984 -7.15426,0.283024 -85.50793,-7.611479 -79.97102,-20.282184 2.18121,-4.991502 8.2452,-7.32953 13.14592,-9.707712 11.64932,-5.653096 23.87671,-10.09186 36.15128,-14.2148646 46.9076,-15.7561733 72.97795,-21.7724754 124.3385,-27.2162644 14.89112,-1.578334 29.95927,-1.612161 44.91523,-0.86676 18.96387,0.945153 32.13378,4.900625 28.48283,10.9211763 -8.15166,13.4423981 -42.30866,18.6740512 -50.39269,19.7621277 -48.05273,6.467696 -93.45123,3.092855 -141.8664,-0.693408 -19.78682,-1.5474095 -39.50986,-3.9470614 -59.15664,-6.7607276 -13.05536,-1.8696912 -26.13375,-3.93180066 -38.89002,-7.2807841 -3.46624,-0.9100139 -12.03805,-3.0479869 -9.31169,-5.373912 5.72076,-4.8805343 14.5015,-4.0843733 21.90986,-5.3739123 54.30288,-9.452236 98.5615,-12.014035 152.27359,-29.989896 14.35252,-4.803369 28.19692,-11.015242 42.17649,-16.815144 7.7515,-3.215973 15.175,-7.208905 23.00536,-10.227768 2.25629,-0.869874 6.26338,-3.647902 7.12071,-1.386816 1.27169,3.353899 -2.53223,6.712164 -3.83423,10.054416 -8.41617,21.60451 -6.28481,14.435053 -14.78916,42.47124 -3.80709,12.5508061 -7.35228,25.1797244 -10.95493,37.790736 -2.42263,8.480386 -5.05436,16.90858 -7.12071,25.482745 -2.8724,11.918849 -4.12543,19.363387 -0.54774,19.242072 4.6113,-0.156364 8.72634,-3.0087 13.14592,-4.3338 9.45906,-2.836064 18.85747,-5.940811 28.48283,-8.147544 13.58589,-3.114737 27.2954,-5.742871 41.081,-7.80084 15.2654,-2.278881 30.65037,-3.688822 46.01072,-5.20056 25.70849,-2.530186 51.56489,-3.495958 77.23229,-6.414024 5.3237,-0.605235 30.572,-3.401198 37.2468,-9.014304 3.0166,-2.536792 4.7393,-6.810939 4.9297,-10.747825 0.6181,-12.7800665 -11.7555,-45.966235 -8.764,-48.711912 3.1126,-2.856686 8.5704,0.112072 12.5982,1.386816 38.2732,12.112782 81.6507,42.38548 112.2881,67.433929 4.0834,3.338521 14.0026,12.560705 8.7639,13.174752 -18.0024,2.110168 -40.9992,-7.657964 -57.5134,-13.174752 -7.9412,-2.652878 -17.3237,-5.138275 -24.1008,-10.747825 -0.3561,-0.294758 -0.4615,-1.359432 0,-1.386816 12.361,-0.733509 34.0729,10.017828 39.9855,12.307993 43.134,16.707375 87.9692,39.525867 134.7457,44.031408 58.3385,5.619199 112.9818,-25.104378 159.942,-55.819345 3.4454,-2.253477 31.7633,-16.2397665 25.7441,-30.3366 -10.5182,-24.633419 -146.6504,-54.074596 -83.8052,17.1618484 24.1895,27.4193306 58.5874,51.3080886 89.8304,68.9940966 31.0986,17.604261 64.9221,35.355762 102.4287,31.550062 27.583,-2.79878 41.5167,-39.830964 45.4629,-62.233366 1.569,-8.90671 1.7451,-18.010074 2.191,-27.042913 0.103,-2.08568 0.6982,-4.564855 -0.5477,-6.240672 -2.7005,-3.6322844 -2.947,8.661348 -3.2865,13.174753 -0.2991,3.97586 -0.4409,7.998642 0,11.961288 0.685,6.157031 9.9953,31.343743 7.1207,35.710512 -4.536,6.890732 -23.0531,-1.252322 -32.3171,-3.987096 -35.4799,-10.473896 -73.9609,-28.015615 -111.7403,-26.176152"
       id="path163" />
    <path
       style="fill:none;stroke:#000000;stroke-width:1px;stroke-linecap:butt;stroke-linejoin:miter;stroke-opacity:1"
       d="m -21.88677,39.635852 c 5.660049,5.7784 9.280893,14.855775 16.9801474,17.3352 C 0.69689057,58.775576 22.206244,39.045885 23.576206,37.208924 26.918106,32.727822 29.3509,27.313347 30.149166,21.780596 32.020924,8.8075229 30.376203,-6.0143203 20.289726,-15.663437 9.4392033,-26.043469 -14.935715,-28.244087 -15.861557,-7.3425407 -17.015713,18.713374 2.3529112,34.256865 7.1438049,58.011164 8.8056774,66.251091 -5.1651749,63.137028 -12.575076,56.450996 -12.7221,56.318335 -28.868907,27.938294 -28.459731,25.247636 -24.129854,-3.224746 16.364287,-7.0108296 36.722127,0.97835536 55.986833,8.5385533 70.726321,25.754111 76.15989,45.52982 c 2.235165,8.134983 2.784819,17.345806 0,25.309392 -2.64824,7.573016 -8.215185,14.854776 -15.336908,18.548664 -13.206154,6.849753 -54.002754,1.286412 -62.9908711,-12.481344 -2.142034,-3.28111 2.19067872,-8.267809 5.4774671,-10.40112 8.065833,-5.235181 17.606481,-7.88849 26.839588,-10.574472 21.198494,-6.166806 45.197778,-6.821411 66.825098,-7.280784 19.715786,-0.418772 39.811226,3.13314 59.156646,-0.693408 1.9387,-0.383478 5.30507,-1.353399 4.92972,-3.293688 -0.53064,-2.74298 -4.01313,-4.081287 -6.57296,-5.20056 C 154.21898,39.345019 89.13265,15.231418 87.114824,14.499811 79.10695,11.596383 71.021678,8.9094447 63.013969,6.0055634 62.253953,5.7299546 60.02017,4.8701731 60.822982,4.9654514 82.696418,7.5614076 103.33766,15.174223 125.45709,17.620147 138.11831,19.0202 159.60898,12.741058 136.41203,0.45829935 114.48366,-11.152744 83.196977,-11.071829 59.179742,-11.156285 43.402032,-11.211767 30.719024,-10.04853 32.340153,-5.0889647 34.475,1.4422284 66.914531,19.038837 70.134676,20.740483 106.51331,39.964332 148.00668,50.551727 181.875,74.1329 c 0.61986,0.431581 -1.44579,-0.831129 -1.64324,-1.560168 -0.9325,-3.443086 -1.75002,-7.008942 -1.64324,-10.574472 0.311,-10.383816 3.19704,-34.41356 7.12071,-45.418225 5.93382,-16.64251287 10.94743,-27.583149 23.55311,-39.177552 1.43748,-1.322157 6.19493,-3.89673 5.47747,-2.080224 -8.10943,20.5318933 -62.01093,42.857255 -66.8251,58.939681 -1.73867,5.808283 1.58962,13.028484 6.02521,17.161848 9.85464,9.183177 35.63476,13.623408 48.20171,13.86816 33.79183,0.658123 73.39057,-0.788951 101.88089,-22.015704 12.83394,-9.561949 -1.96472,-20.979236 -8.2162,-16.641792 -28.77215,19.962864 40.36701,48.437048 47.65396,50.27208 6.72831,1.694351 14.09181,1.543635 20.81438,-0.173352 23.80369,-6.079619 15.42842,-40.120679 10.40718,-54.952584 -3.14517,-9.290303 -10.34053,-18.7076856 -7.1207,-20.1088326 0.36223,-0.1576307 11.0083,6.9407981 13.14592,8.320896 1.63382,1.0548366 6.87447,3.1203356 4.92972,3.1203356 -2.1013,0 -3.57921,-2.219188 -5.47747,-3.1203356 -6.14227,-2.9158755 -12.21077,-6.060794 -18.62339,-8.320896 -32.95821,-11.6159877 -72.21905,-20.7140864 -107.35835,-14.0415124 -6.32517,1.201083 -9.71437,10.2198314 -10.95494,14.7349204 -2.16138,7.8664616 6.27017,34.8753666 18.62339,28.7764326 8.34422,-4.119639 12.60727,-13.760269 19.71888,-19.762129 14.00031,-11.81559111 26.18792,-20.2139038 45.46298,-21.669 27.79543,-2.098308 58.65876,10.61514333 82.70975,20.80224 13.55072,5.739577 31.46988,18.174076 42.72424,27.909673 2.19355,1.897525 8.22108,5.820066 5.47747,6.760728 -4.05676,1.390885 -8.21568,-2.587085 -12.05043,-4.507152 -8.42973,-4.220793 -16.50005,-9.127208 -24.6486,-13.86816 -13.56057,-7.889749 -27.68524,-14.918925 -40.53325,-23.9225766 -0.92781,-0.6501921 2.22982,0.4580332 3.28648,0.86676 10.45321,4.0434212 20.81253,8.3254966 31.22156,12.4813436 37.10603,14.814743 72.36861,31.662939 113.38357,31.550065 13.57881,-0.03737 28.56095,-8.80023 35.60353,-20.282184 2.96706,-4.837371 -0.61457,-17.5052051 4.92972,-16.295089 19.24824,4.201189 36.27093,15.783713 55.32242,20.802241 36.60209,9.641694 68.91458,9.637098 105.71511,3.813744"
       id="path165" />
    <path
       style="fill:none;stroke:#000000;stroke-width:1px;stroke-linecap:butt;stroke-linejoin:miter;stroke-opacity:1"
       d="m 671.01281,26.634452 c 11.3561,-1.232632 36.18055,15.467184 46.55847,12.481344 21.74149,-6.255266 39.54469,-30.5338164 61.89538,-36.5772726 35.55222,-9.6130521 48.33792,-4.7797792 84.90074,6.240672 30.18863,9.0992016 58.9293,22.4789856 88.73496,32.7635286 7.85414,2.710097 41.18415,15.369219 54.77464,13.174752 14.7312,-2.378644 0.5966,-17.797335 -1.6432,-20.455536 C 994.60952,20.466169 974.30942,8.0220012 956.38884,5.6588594 c -1.3169,-0.173657 2.06663,1.7278762 3.28648,2.253576 7.38819,3.1839716 14.8168,6.3228446 22.45762,8.8409516 14.47038,4.768857 28.94836,9.688426 43.81976,13.001401 62.8269,13.996262 124.7373,10.771872 187.8771,0 52.1419,-8.895604 78.0813,-16.203908 125.9817,-34.3236967 20.396,-7.7153803 39.0729,-20.2903933 60.2522,-25.4827443 5.9076,-1.448332 23.0984,-1.635906 15.3369,4.680504 -15.8325,12.884654 -44.6425,19.7103298 -61.8954,22.8824643 -77.5978,14.2672077 -157.007,13.9722927 -235.5311,14.3882157 -14.9715,0.0793 -29.944,-0.129221 -44.9152,0 -5.1151,0.04415 -10.3541,-0.636387 -15.3369,0.520056 -2.3556,0.546694 4.7371,0.979061 7.1207,1.386816 41.773,7.146175 29.2723,3.870772 74.4935,15.081625 57.5748,14.273404 110.2907,30.646832 169.2538,37.617384 45.0387,5.324431 99.4544,6.901975 133.6502,-29.123136 10.1537,-10.696891 17.9907,-28.0604455 14.2414,-43.3380007 -5.8739,-23.9342993 -37.4823,-26.8921003 -50.9405,-8.8409523 -8.0854,10.8448087 -13.1881,36.145368 -24.1008,44.551465 -12.7897,9.851932 -28.0751,17.059404 -43.8198,20.628888 -22.8547,5.181416 -46.6871,4.504717 -70.1115,5.20056 -53.6567,1.593918 -107.3787,-2.556369 -161.0376,-1.040112 -59.26,1.674529 -117.64695,9.819539 -176.3744,16.988496"
       id="path167" />
    <path
       style="fill:none;stroke:#000000;stroke-width:1px;stroke-linecap:butt;stroke-linejoin:miter;stroke-opacity:1"
       d="M -21.88677,39.635852 C -11.980258,13.299891 -20.004514,10.736242 0.57084446,7.3923794 3.4548931,6.9236701 6.6227088,6.131815 9.3347917,7.2190274 25.81287,13.824714 22.75498,59.744719 5.5005648,58.184516 -16.880044,56.160784 -13.532255,32.93551 10.978032,34.088588 c 16.990396,0.799306 32.577724,6.264456 48.20171,12.307992 3.452834,1.335595 18.4494,9.209706 20.814374,8.320896 C 85.782001,52.542259 57.431537,0.66116155 65.752702,0.28494735 74.623959,-0.11613745 104.4341,34.040836 107.38145,42.06278 c 2.408,6.553963 -7.11428,1.222947 -16.980146,-4.160448 C 78.980045,31.670222 67.93296,24.761028 56.441008,18.660259 36.268788,7.95137 14.881288,-0.44630048 -4.9066226,-11.849693 c -3.4448459,-1.985198 -9.5047414,-3.482901 -9.3116944,-7.454136 0.171094,-3.519623 6.3640085,-3.367679 9.8594411,-3.813744 13.211927,-1.686023 44.4289739,0.32245 55.8701639,1.040112 5.909367,0.370672 40.300065,1.76136 48.749452,6.760728 17.60957,10.4192953 -10.892921,37.060709 -16.980143,42.991297 -4.156188,4.049241 -9.006234,7.327558 -13.693668,10.747824 -1.895559,1.383126 -8.145005,2.634078 -6.025214,3.640392 2.8731,1.363926 6.230073,-1.29371 9.311694,-2.080224 8.240395,-2.103175 16.558886,-3.963649 24.648602,-6.587376 21.274719,-6.900004 98.947119,-31.2729045 101.333139,-62.233369 1.28597,-16.686466 -31.38727,-5.563284 -36.15128,-1.040112 -42.22382,40.089239 78.30232,108.806879 85.44848,66.740521 2.30473,-13.566944 -9.40353,-33.1369447 -15.3369,-43.3380007 -2.60979,-4.4869263 -11.47287,-17.2007553 -9.3117,-12.4813443 3.17653,6.936671 17.4134,33.623177 13.69367,40.737721 -10.33496,19.767195 -107.6857,1.390936 -113.38357,-16.6417926 -2.38173,-7.537761 13.17745,-9.9032713 26.83959,-11.0945281 41.76332,-3.641512 84.24278,0.5776007 125.98174,1.906872 12.77637,0.4068922 25.56103,0.8956598 38.34227,0.693408 13.75022,-0.2175849 24.10086,-3.624623 24.10086,-1.906872 0,2.9946675 -5.201,2.9835367 -7.66846,4.68050405 -9.92103,6.82308835 -56.31809,35.83213865 -45.46297,49.05861665 11.92405,14.528931 75.0413,-5.007366 75.0413,-27.042912 0,-17.9006405 -66.86484,-37.552797 -69.56384,-18.0286086 -4.21329,30.4784216 60.58132,96.9887566 92.02145,92.7433206 30.12731,-4.068161 33.44809,-41.379139 36.15128,-63.793536 0.98443,-8.162723 -0.21327,-11.748104 1.0955,-18.375313 0.0784,-0.396824 0,0.808976 0,1.213464 0,2.02244 0.25359,4.060843 0,6.067321 -0.23903,1.891209 -3.96568,22.860641 -4.92972,26.696208 -0.43184,1.718124 -2.74625,5.843556 -1.0955,5.20056 19.27482,-7.507859 -11.32994,-0.444817 19.17114,-7.974192 16.1888,-3.996304 32.46804,-2.70846 48.74945,-5.027208 4.07657,-0.580573 9.63174,-2.968173 13.14592,-3.293688 65.56661,-6.073362 131.78046,4.790511 196.64107,13.0014"
       id="path169" />
    <path
       style="fill:none;stroke:#000000;stroke-width:1px;stroke-linecap:butt;stroke-linejoin:miter;stroke-opacity:1"
       d="M 8.2392983,33.048476 C 8.787045,27.847916 7.5231855,22.113626 9.8825384,17.446795 12.907761,11.462866 18.462659,7.0490422 23.576206,2.7118754 c 4.096384,-3.47443826 9.034387,-5.821574 13.693668,-8.4942481 1.196896,-0.6865679 3.436611,-2.8814694 3.834227,-1.560168 2.029713,6.74486434 -30.313388,32.5846517 -6.025214,46.4583367 22.8681,13.062522 48.876164,-16.70445 55.322417,-34.3236966 2.561937,-7.0024252 1.112635,-15.0932534 -0.547747,-22.3624084 -3.031286,-13.270976 -18.92497,-2.614964 -23.553108,0.520056 -5.447178,3.689824 -9.695311,8.9899538 -13.693668,14.2148643 C 34.995868,20.177929 30.768098,22.898967 28.505926,47.956748 c -0.292795,3.243253 -1.174508,7.372864 1.095494,9.707712 1.750648,1.800658 1.481129,-4.972519 1.095493,-7.454136 C 29.416989,41.973838 27.4683,33.793236 24.671699,25.941044 14.479299,-2.6768097 0.02448411,-27.086975 -17.504797,-51.547301 -23.709155,-60.204851 -5.322252,-34.07015 0.57084446,-25.197797 9.5129878,-11.73495 43.540321,37.462038 36.722127,56.450996 c -1.294352,3.604824 -7.203129,4.237795 -10.954934,3.46704 -13.469666,-2.767151 -48.473191,-26.478903 -51.48819,-40.911073 -4.325518,-20.7053485 86.813123,9.528458 93.116939,11.441233 7.870274,2.388086 23.969187,8.484193 33.960298,7.974192 1.66755,-0.08512 4.72614,-0.793065 4.38197,-2.426928 C 103.28732,24.360509 72.300536,25.373643 63.561715,22.820708 55.191943,20.375585 44.748259,16.185591 38.365367,9.8193074 31.824385,3.2953448 28.268761,-3.1737016 36.17438,-10.982933 c 31.987031,-31.597033 83.22366,26.534415 96.40342,50.965489 4.17373,7.736756 7.69237,26.124001 -1.09549,26.349504 -25.22114,0.647192 -41.329054,-61.949287 0.54774,-56.166049 23.06553,3.185379 32.41515,24.822089 34.50805,45.071521 0.45498,4.402161 -0.64963,8.862124 -1.64324,13.174752 -0.30694,1.332204 -3.5413,3.253366 -2.19099,3.46704 1.7711,0.280261 2.77564,-2.323426 4.38197,-3.120336 5.17549,-2.567595 10.37654,-5.190859 15.88466,-6.93408 18.72303,-5.925506 48.8931,-11.513777 67.37284,-12.828048 52.4257,-3.728493 99.7634,3.849713 151.72584,7.454136 21.51044,1.492092 43.08941,1.73352 64.63411,2.60028"
       id="path171" />
    <path
       style="fill:none;stroke:#000000;stroke-width:1px;stroke-linecap:butt;stroke-linejoin:miter;stroke-opacity:1"
       d="m 194.47318,27.847916 c -2.73874,0.751192 -5.47747,1.502384 -8.2162,2.253576"
       id="path173" />
    <path
       style="fill:none;stroke:#000000;stroke-width:1px;stroke-linecap:butt;stroke-linejoin:miter;stroke-opacity:1"
       d="m 186.25698,30.101492 c -3.63965,-6.335359 -3.47965,-3.114594 5.47746,-7.974192 -8.03361,-11.672369 -15.61551,-23.6688799 -24.10085,-35.017105 -2.86072,-3.825909 -8.10454,-14.844277 -9.85944,-10.40112 -2.42971,6.151662 3.45985,12.886352 6.57296,18.7220163 6.43464,12.0620485 15.72753,22.4771067 21.90987,34.6704007 2.66678,5.259626 13.76594,54.928962 35.05579,54.779232 12.92786,-0.09092 51.17457,-31.236548 60.25213,-35.883864 14.15223,-7.245323 28.74037,-14.5805 44.36749,-17.508552 53.90959,-10.101039 112.1215,1.933507 164.32401,11.094528 7.92137,1.390122 126.90167,25.218172 169.80148,33.80364"
       id="path175" />
    <path
       style="fill:none;stroke:#000000;stroke-width:1px;stroke-linecap:butt;stroke-linejoin:miter;stroke-opacity:1"
       d="m 1533.1661,41.542724 c -7.814,-2.253688 -19.9843,-11.867294 -20.8144,-33.8036406 -0.1546,-4.0873486 0.3321,-8.65400343 2.7388,-11.9612881 25.1384,-34.5451813 101.177,-36.4340083 136.3889,-37.4440323 91.0895,-2.612826 182.215,5.950609 273.3256,5.373912"
       id="path177" />
  </g>
</svg>
